ply
format ascii 1.0
comment Created by Blender 2.77 (sub 0) - www.blender.org, source file: ''
element vertex 64
property float x
property float y
property float z
property float nx
property float ny
property float nz
property float s
property float t
element face 30
property list uchar uint vertex_indices
end_header
2.000000 0.000000 -1.000000 -0.440300 0.175162 -0.880599 0.250000 0.490000
0.000000 -0.000000 0.000000 -0.440300 0.175162 -0.880599 0.250000 0.250000
2.000000 0.382683 -0.923880 -0.440300 0.175162 -0.880599 0.341844 0.471731
2.000000 0.382683 -0.923880 -0.440300 0.498819 -0.746536 0.341844 0.471731
0.000000 -0.000000 0.000000 -0.440300 0.498819 -0.746536 0.250000 0.250000
2.000000 0.707107 -0.707107 -0.440300 0.498819 -0.746536 0.419706 0.419706
2.000000 0.707107 -0.707107 -0.440300 0.746536 -0.498819 0.419706 0.419706
0.000000 -0.000000 0.000000 -0.440300 0.746536 -0.498819 0.250000 0.250000
2.000000 0.923880 -0.382683 -0.440300 0.746536 -0.498819 0.471731 0.341844
2.000000 0.923880 -0.382683 -0.440300 0.880599 -0.175162 0.471731 0.341844
0.000000 -0.000000 0.000000 -0.440300 0.880599 -0.175162 0.250000 0.250000
2.000000 1.000000 0.000000 -0.440300 0.880599 -0.175162 0.490000 0.250000
2.000000 1.000000 0.000000 -0.440300 0.880599 0.175162 0.490000 0.250000
0.000000 -0.000000 0.000000 -0.440300 0.880599 0.175162 0.250000 0.250000
2.000000 0.923880 0.382684 -0.440300 0.880599 0.175162 0.471731 0.158156
2.000000 0.923880 0.382684 -0.440300 0.746536 0.498819 0.471731 0.158156
0.000000 -0.000000 0.000000 -0.440300 0.746536 0.498819 0.250000 0.250000
2.000000 0.707107 0.707107 -0.440300 0.746536 0.498819 0.419706 0.080294
2.000000 0.707107 0.707107 -0.440300 0.498819 0.746536 0.419706 0.080294
0.000000 -0.000000 0.000000 -0.440300 0.498819 0.746536 0.250000 0.250000
2.000000 0.382684 0.923880 -0.440300 0.498819 0.746536 0.341844 0.028269
2.000000 0.382684 0.923880 -0.440300 0.175162 0.880599 0.341844 0.028269
0.000000 -0.000000 0.000000 -0.440300 0.175162 0.880599 0.250000 0.250000
2.000000 0.000000 1.000000 -0.440300 0.175162 0.880599 0.250000 0.010000
2.000000 0.000000 1.000000 -0.440300 -0.175162 0.880599 0.250000 0.010000
0.000000 -0.000000 0.000000 -0.440300 -0.175162 0.880599 0.250000 0.250000
2.000000 -0.382683 0.923880 -0.440300 -0.175162 0.880599 0.158156 0.028269
2.000000 -0.382683 0.923880 -0.440300 -0.498819 0.746536 0.158156 0.028269
0.000000 -0.000000 0.000000 -0.440300 -0.498819 0.746536 0.250000 0.250000
2.000000 -0.707107 0.707107 -0.440300 -0.498819 0.746536 0.080294 0.080294
2.000000 -0.707107 0.707107 -0.440299 -0.746536 0.498819 0.080294 0.080294
0.000000 -0.000000 0.000000 -0.440299 -0.746536 0.498819 0.250000 0.250000
2.000000 -0.923879 0.382684 -0.440299 -0.746536 0.498819 0.028269 0.158156
2.000000 -0.923879 0.382684 -0.440299 -0.880599 0.175162 0.028269 0.158156
0.000000 -0.000000 0.000000 -0.440299 -0.880599 0.175162 0.250000 0.250000
2.000000 -1.000000 -0.000000 -0.440299 -0.880599 0.175162 0.010000 0.250000
2.000000 -1.000000 -0.000000 -0.440299 -0.880599 -0.175162 0.010000 0.250000
0.000000 -0.000000 0.000000 -0.440299 -0.880599 -0.175162 0.250000 0.250000
2.000000 -0.923879 -0.382684 -0.440299 -0.880599 -0.175162 0.028269 0.341844
2.000000 -0.923879 -0.382684 -0.440299 -0.746536 -0.498819 0.028269 0.341844
0.000000 -0.000000 0.000000 -0.440299 -0.746536 -0.498819 0.250000 0.250000
2.000000 -0.707106 -0.707107 -0.440299 -0.746536 -0.498819 0.080294 0.419706
2.000000 -0.707106 -0.707107 -0.440299 -0.498819 -0.746536 0.080294 0.419706
0.000000 -0.000000 0.000000 -0.440299 -0.498819 -0.746536 0.250000 0.250000
2.000000 -0.382683 -0.923880 -0.440299 -0.498819 -0.746536 0.158156 0.471731
2.000000 -0.382683 -0.923880 -0.440300 -0.175162 -0.880599 0.158156 0.471731
0.000000 -0.000000 0.000000 -0.440300 -0.175162 -0.880599 0.250000 0.250000
2.000000 0.000000 -1.000000 -0.440300 -0.175162 -0.880599 0.250000 0.490000
2.000000 0.382684 0.923880 1.000000 0.000000 -0.000000 0.841844 0.028269
2.000000 -0.923879 0.382684 1.000000 0.000000 -0.000000 0.528269 0.158156
2.000000 0.923880 -0.382683 1.000000 0.000000 -0.000000 0.971731 0.341844
2.000000 -0.382683 -0.923880 1.000000 0.000000 0.000000 0.658156 0.471731
2.000000 0.000000 -1.000000 1.000000 0.000000 0.000000 0.750000 0.490000
2.000000 0.382683 -0.923880 1.000000 0.000000 0.000000 0.841844 0.471731
2.000000 0.707107 -0.707107 1.000000 -0.000000 0.000000 0.919706 0.419706
2.000000 1.000000 0.000000 1.000000 0.000000 0.000000 0.990000 0.250000
2.000000 0.923880 0.382684 1.000000 0.000000 0.000000 0.971731 0.158156
2.000000 0.707107 0.707107 1.000000 -0.000000 -0.000000 0.919706 0.080294
2.000000 0.000000 1.000000 1.000000 -0.000000 0.000000 0.750000 0.010000
2.000000 -0.382683 0.923880 1.000000 0.000000 0.000000 0.658156 0.028269
2.000000 -0.707107 0.707107 1.000000 0.000000 0.000000 0.580294 0.080294
2.000000 -1.000000 -0.000000 1.000000 0.000000 -0.000000 0.510000 0.250000
2.000000 -0.923879 -0.382684 1.000000 0.000000 -0.000000 0.528269 0.341844
2.000000 -0.707106 -0.707107 1.000000 0.000000 0.000000 0.580294 0.419706
3 0 1 2
3 3 4 5
3 6 7 8
3 9 10 11
3 12 13 14
3 15 16 17
3 18 19 20
3 21 22 23
3 24 25 26
3 27 28 29
3 30 31 32
3 33 34 35
3 36 37 38
3 39 40 41
3 42 43 44
3 45 46 47
3 48 49 50
3 51 52 53
3 53 54 51
3 50 55 56
3 56 57 50
3 48 58 49
3 59 60 49
3 49 61 62
3 62 63 51
3 51 54 50
3 50 57 48
3 58 59 49
3 49 62 51
3 51 50 49
